<mxfile host="app.diagrams.net" agent="Mozilla/5.0 (Macintosh; Intel Mac OS X 10_15_7) AppleWebKit/537.36 (KHTML, like Gecko) Chrome/134.0.0.0 Safari/537.36" version="26.1.1">
  <diagram name="Sweet Creations - New Order" id="XDbHdlDqICwKTgOpHFP2">
    <mxGraphModel dx="1242" dy="722" grid="0" gridSize="10" guides="1" tooltips="1" connect="1" arrows="1" fold="1" page="0" pageScale="1" pageWidth="827" pageHeight="1169" math="0" shadow="0">
      <root>
        <mxCell id="0" />
        <mxCell id="1" parent="0" />
        <mxCell id="qlahnGeuhdhRXO41E3mv-1" value="" style="rounded=0;whiteSpace=wrap;html=1;fillColor=#f8f8f8;strokeColor=none;" vertex="1" parent="1">
          <mxGeometry width="800" height="600" as="geometry" />
        </mxCell>
        <mxCell id="qlahnGeuhdhRXO41E3mv-2" value="" style="rounded=0;whiteSpace=wrap;html=1;fillColor=#FF85A2;strokeColor=none;" vertex="1" parent="1">
          <mxGeometry width="800" height="60" as="geometry" />
        </mxCell>
        <mxCell id="qlahnGeuhdhRXO41E3mv-3" value="Sweet Creations - New Order" style="text;html=1;strokeColor=none;fillColor=none;align=left;verticalAlign=middle;whiteSpace=wrap;rounded=0;fontColor=#FFFFFF;fontSize=22;fontStyle=1" vertex="1" parent="1">
          <mxGeometry x="30" y="15" width="400" height="30" as="geometry" />
        </mxCell>
        <mxCell id="qlahnGeuhdhRXO41E3mv-4" value="" style="rounded=1;whiteSpace=wrap;html=1;fillColor=#FFFFFF;strokeColor=#E0E0E0;" vertex="1" parent="1">
          <mxGeometry x="15" y="68" width="776" height="526" as="geometry" />
        </mxCell>
        <mxCell id="qlahnGeuhdhRXO41E3mv-5" value="Create New Order" style="text;html=1;strokeColor=none;fillColor=none;align=left;verticalAlign=middle;whiteSpace=wrap;rounded=0;fontColor=#333333;fontSize=20;fontStyle=1" vertex="1" parent="1">
          <mxGeometry x="70" y="100" width="200" height="30" as="geometry" />
        </mxCell>
        <mxCell id="qlahnGeuhdhRXO41E3mv-6" value="Customer Information" style="text;html=1;strokeColor=none;fillColor=none;align=left;verticalAlign=middle;whiteSpace=wrap;rounded=0;fontColor=#FF85A2;fontSize=16;fontStyle=1" vertex="1" parent="1">
          <mxGeometry x="70" y="140" width="200" height="30" as="geometry" />
        </mxCell>
        <mxCell id="qlahnGeuhdhRXO41E3mv-7" value="" style="endArrow=none;html=1;strokeWidth=1;strokeColor=#FF85A2;" edge="1" parent="1">
          <mxGeometry width="50" height="50" relative="1" as="geometry">
            <mxPoint x="70" y="170" as="sourcePoint" />
            <mxPoint x="730" y="170" as="targetPoint" />
          </mxGeometry>
        </mxCell>
        <mxCell id="qlahnGeuhdhRXO41E3mv-8" value="Customer:" style="text;html=1;strokeColor=none;fillColor=none;align=left;verticalAlign=middle;whiteSpace=wrap;rounded=0;fontColor=#666666;fontSize=14;" vertex="1" parent="1">
          <mxGeometry x="70" y="180" width="100" height="20" as="geometry" />
        </mxCell>
        <mxCell id="qlahnGeuhdhRXO41E3mv-9" value="" style="rounded=1;whiteSpace=wrap;html=1;fillColor=#FFFFFF;strokeColor=#CCCCCC;" vertex="1" parent="1">
          <mxGeometry x="70" y="210" width="300" height="35" as="geometry" />
        </mxCell>
        <mxCell id="qlahnGeuhdhRXO41E3mv-10" value="Search or Select Customer" style="text;html=1;strokeColor=none;fillColor=none;align=center;verticalAlign=middle;whiteSpace=wrap;rounded=0;fontColor=#999999;fontSize=14;" vertex="1" parent="1">
          <mxGeometry x="100" y="217.5" width="230" height="20" as="geometry" />
        </mxCell>
        <mxCell id="qlahnGeuhdhRXO41E3mv-11" value="Add New" style="rounded=1;whiteSpace=wrap;html=1;fillColor=#FF85A2;strokeColor=none;fontColor=#FFFFFF;fontSize=14;" vertex="1" parent="1">
          <mxGeometry x="380" y="210" width="120" height="35" as="geometry" />
        </mxCell>
        <mxCell id="qlahnGeuhdhRXO41E3mv-12" value="Phone:" style="text;html=1;strokeColor=none;fillColor=none;align=left;verticalAlign=middle;whiteSpace=wrap;rounded=0;fontColor=#666666;fontSize=14;" vertex="1" parent="1">
          <mxGeometry x="520" y="180" width="100" height="20" as="geometry" />
        </mxCell>
        <mxCell id="qlahnGeuhdhRXO41E3mv-13" value="" style="rounded=1;whiteSpace=wrap;html=1;fillColor=#FFFFFF;strokeColor=#CCCCCC;" vertex="1" parent="1">
          <mxGeometry x="520" y="210" width="200" height="35" as="geometry" />
        </mxCell>
        <mxCell id="qlahnGeuhdhRXO41E3mv-14" value="Order Details" style="text;html=1;strokeColor=none;fillColor=none;align=left;verticalAlign=middle;whiteSpace=wrap;rounded=0;fontColor=#FF85A2;fontSize=16;fontStyle=1" vertex="1" parent="1">
          <mxGeometry x="70" y="260" width="200" height="30" as="geometry" />
        </mxCell>
        <mxCell id="qlahnGeuhdhRXO41E3mv-15" value="" style="endArrow=none;html=1;strokeWidth=1;strokeColor=#FF85A2;" edge="1" parent="1">
          <mxGeometry width="50" height="50" relative="1" as="geometry">
            <mxPoint x="70" y="290" as="sourcePoint" />
            <mxPoint x="730" y="290" as="targetPoint" />
          </mxGeometry>
        </mxCell>
        <mxCell id="qlahnGeuhdhRXO41E3mv-16" value="Product Type:" style="text;html=1;strokeColor=none;fillColor=none;align=left;verticalAlign=middle;whiteSpace=wrap;rounded=0;fontColor=#666666;fontSize=14;" vertex="1" parent="1">
          <mxGeometry x="70" y="300" width="100" height="20" as="geometry" />
        </mxCell>
        <mxCell id="qlahnGeuhdhRXO41E3mv-17" value="" style="rounded=1;whiteSpace=wrap;html=1;fillColor=#FFFFFF;strokeColor=#CCCCCC;" vertex="1" parent="1">
          <mxGeometry x="70" y="330" width="300" height="35" as="geometry" />
        </mxCell>
        <mxCell id="qlahnGeuhdhRXO41E3mv-18" value="â–¼" style="text;html=1;strokeColor=none;fillColor=none;align=right;verticalAlign=middle;whiteSpace=wrap;rounded=0;fontColor=#999999;fontSize=14;" vertex="1" parent="1">
          <mxGeometry x="340" y="337.5" width="20" height="20" as="geometry" />
        </mxCell>
        <mxCell id="qlahnGeuhdhRXO41E3mv-19" value="Size:" style="text;html=1;strokeColor=none;fillColor=none;align=left;verticalAlign=middle;whiteSpace=wrap;rounded=0;fontColor=#666666;fontSize=14;" vertex="1" parent="1">
          <mxGeometry x="400" y="300" width="100" height="20" as="geometry" />
        </mxCell>
        <mxCell id="qlahnGeuhdhRXO41E3mv-20" value="" style="rounded=1;whiteSpace=wrap;html=1;fillColor=#FFFFFF;strokeColor=#CCCCCC;" vertex="1" parent="1">
          <mxGeometry x="400" y="330" width="150" height="35" as="geometry" />
        </mxCell>
        <mxCell id="qlahnGeuhdhRXO41E3mv-21" value="â–¼" style="text;html=1;strokeColor=none;fillColor=none;align=right;verticalAlign=middle;whiteSpace=wrap;rounded=0;fontColor=#999999;fontSize=14;" vertex="1" parent="1">
          <mxGeometry x="525" y="337.5" width="20" height="20" as="geometry" />
        </mxCell>
        <mxCell id="qlahnGeuhdhRXO41E3mv-22" value="Quantity:" style="text;html=1;strokeColor=none;fillColor=none;align=left;verticalAlign=middle;whiteSpace=wrap;rounded=0;fontColor=#666666;fontSize=14;" vertex="1" parent="1">
          <mxGeometry x="580" y="300" width="100" height="20" as="geometry" />
        </mxCell>
        <mxCell id="qlahnGeuhdhRXO41E3mv-23" value="" style="rounded=1;whiteSpace=wrap;html=1;fillColor=#FFFFFF;strokeColor=#CCCCCC;" vertex="1" parent="1">
          <mxGeometry x="580" y="330" width="140" height="35" as="geometry" />
        </mxCell>
        <mxCell id="qlahnGeuhdhRXO41E3mv-24" value="1" style="text;html=1;strokeColor=none;fillColor=none;align=left;verticalAlign=middle;whiteSpace=wrap;rounded=0;fontColor=#333333;fontSize=14;" vertex="1" parent="1">
          <mxGeometry x="595" y="337.5" width="20" height="20" as="geometry" />
        </mxCell>
        <mxCell id="qlahnGeuhdhRXO41E3mv-25" value="Customization:" style="text;html=1;strokeColor=none;fillColor=none;align=left;verticalAlign=middle;whiteSpace=wrap;rounded=0;fontColor=#666666;fontSize=14;" vertex="1" parent="1">
          <mxGeometry x="70" y="370" width="100" height="20" as="geometry" />
        </mxCell>
        <mxCell id="qlahnGeuhdhRXO41E3mv-26" value="" style="rounded=1;whiteSpace=wrap;html=1;fillColor=#FFFFFF;strokeColor=#CCCCCC;" vertex="1" parent="1">
          <mxGeometry x="70" y="400" width="650" height="60" as="geometry" />
        </mxCell>
        <mxCell id="qlahnGeuhdhRXO41E3mv-27" value="Delivery Information" style="text;html=1;strokeColor=none;fillColor=none;align=left;verticalAlign=middle;whiteSpace=wrap;rounded=0;fontColor=#FF85A2;fontSize=16;fontStyle=1" vertex="1" parent="1">
          <mxGeometry x="70" y="470" width="200" height="30" as="geometry" />
        </mxCell>
        <mxCell id="qlahnGeuhdhRXO41E3mv-28" value="" style="endArrow=none;html=1;strokeWidth=1;strokeColor=#FF85A2;" edge="1" parent="1">
          <mxGeometry width="50" height="50" relative="1" as="geometry">
            <mxPoint x="70" y="500" as="sourcePoint" />
            <mxPoint x="730" y="500" as="targetPoint" />
          </mxGeometry>
        </mxCell>
        <mxCell id="qlahnGeuhdhRXO41E3mv-29" value="Delivery Date:" style="text;html=1;strokeColor=none;fillColor=none;align=left;verticalAlign=middle;whiteSpace=wrap;rounded=0;fontColor=#666666;fontSize=14;" vertex="1" parent="1">
          <mxGeometry x="70" y="510" width="100" height="20" as="geometry" />
        </mxCell>
        <mxCell id="qlahnGeuhdhRXO41E3mv-30" value="" style="rounded=1;whiteSpace=wrap;html=1;fillColor=#FFFFFF;strokeColor=#CCCCCC;" vertex="1" parent="1">
          <mxGeometry x="70" y="540" width="200" height="35" as="geometry" />
        </mxCell>
        <mxCell id="qlahnGeuhdhRXO41E3mv-31" value="ðŸ“…" style="text;html=1;strokeColor=none;fillColor=none;align=right;verticalAlign=middle;whiteSpace=wrap;rounded=0;fontColor=#999999;fontSize=14;" vertex="1" parent="1">
          <mxGeometry x="250" y="547.5" width="10" height="20" as="geometry" />
        </mxCell>
        <mxCell id="qlahnGeuhdhRXO41E3mv-32" value="Delivery Time:" style="text;html=1;strokeColor=none;fillColor=none;align=left;verticalAlign=middle;whiteSpace=wrap;rounded=0;fontColor=#666666;fontSize=14;" vertex="1" parent="1">
          <mxGeometry x="300" y="510" width="100" height="20" as="geometry" />
        </mxCell>
        <mxCell id="qlahnGeuhdhRXO41E3mv-33" value="" style="rounded=1;whiteSpace=wrap;html=1;fillColor=#FFFFFF;strokeColor=#CCCCCC;" vertex="1" parent="1">
          <mxGeometry x="300" y="540" width="200" height="35" as="geometry" />
        </mxCell>
        <mxCell id="qlahnGeuhdhRXO41E3mv-34" value="ðŸ•’" style="text;html=1;strokeColor=none;fillColor=none;align=right;verticalAlign=middle;whiteSpace=wrap;rounded=0;fontColor=#999999;fontSize=14;" vertex="1" parent="1">
          <mxGeometry x="480" y="547.5" width="10" height="20" as="geometry" />
        </mxCell>
        <mxCell id="qlahnGeuhdhRXO41E3mv-35" value="Payment Status:" style="text;html=1;strokeColor=none;fillColor=none;align=left;verticalAlign=middle;whiteSpace=wrap;rounded=0;fontColor=#666666;fontSize=14;" vertex="1" parent="1">
          <mxGeometry x="530" y="510" width="100" height="20" as="geometry" />
        </mxCell>
        <mxCell id="qlahnGeuhdhRXO41E3mv-36" value="" style="rounded=1;whiteSpace=wrap;html=1;fillColor=#FFFFFF;strokeColor=#CCCCCC;" vertex="1" parent="1">
          <mxGeometry x="530" y="540" width="190" height="35" as="geometry" />
        </mxCell>
        <mxCell id="qlahnGeuhdhRXO41E3mv-37" value="â–¼" style="text;html=1;strokeColor=none;fillColor=none;align=right;verticalAlign=middle;whiteSpace=wrap;rounded=0;fontColor=#999999;fontSize=14;" vertex="1" parent="1">
          <mxGeometry x="700" y="547.5" width="10" height="20" as="geometry" />
        </mxCell>
        <mxCell id="qlahnGeuhdhRXO41E3mv-38" value="Save Order" style="rounded=1;whiteSpace=wrap;html=1;fillColor=#4CAF50;strokeColor=none;fontColor=#FFFFFF;fontSize=16;" vertex="1" parent="1">
          <mxGeometry x="600" y="600" width="120" height="40" as="geometry" />
        </mxCell>
        <mxCell id="qlahnGeuhdhRXO41E3mv-39" value="Cancel" style="rounded=1;whiteSpace=wrap;html=1;fillColor=#f8f8f8;strokeColor=#cccccc;fontColor=#666666;fontSize=16;" vertex="1" parent="1">
          <mxGeometry x="460" y="600" width="120" height="40" as="geometry" />
        </mxCell>
      </root>
    </mxGraphModel>
  </diagram>
</mxfile>
